<svg xmlns="http://www.w3.org/2000/svg" width="1100" height="605" viewBox="0 0 1100 605"><title>e036-06 · MSME / enterprise → Accountant / adviser → Fintech / bank → Government / regulator → Research / education</title><desc>Practical impact depends on coordinated responsibilities across institutions.</desc><defs><marker id="arrow" markerWidth="8" markerHeight="8" refX="7" refY="4" orient="auto"><path d="M0 1 L7 4 L0 7" fill="none" stroke="#303030" stroke-width="1.2"/></marker></defs><rect width="100%" height="100%" fill="white"/><path d="M 37 37 Q 281.75 34.9 526.5 36.6 L 528 155 Q 281.75 157.3 36 156 Z" fill="white" stroke="#242424" stroke-width="1.8"/><path d="M 573.5 37 Q 818.25 34.9 1063 36.6 L 1064.5 155 Q 818.25 157.3 572.5 156 Z" fill="white" stroke="#242424" stroke-width="1.8"/><path d="M 37 212 Q 281.75 209.9 526.5 211.6 L 528 330 Q 281.75 332.3 36 331 Z" fill="white" stroke="#242424" stroke-width="1.8"/><path d="M 573.5 212 Q 818.25 209.9 1063 211.6 L 1064.5 330 Q 818.25 332.3 572.5 331 Z" fill="white" stroke="#242424" stroke-width="1.8"/><path d="M 37 387 Q 281.75 384.9 526.5 386.6 L 528 505 Q 281.75 507.3 36 506 Z" fill="white" stroke="#242424" stroke-width="1.8"/><text x="281.75" y="85.5" text-anchor="middle" font-family="Georgia,serif" font-size="23" font-weight="bold" fill="#151515">MSME / enterprise</text><text x="281.75" y="125.5" text-anchor="middle" font-family="Arial,sans-serif" font-size="21" fill="#252525">Capture, separate and reconcile</text><text x="818.25" y="85.5" text-anchor="middle" font-family="Georgia,serif" font-size="23" font-weight="bold" fill="#151515">Accountant / adviser</text><text x="818.25" y="125.5" text-anchor="middle" font-family="Arial,sans-serif" font-size="21" fill="#252525">Design, train and review</text><text x="281.75" y="248" text-anchor="middle" font-family="Georgia,serif" font-size="23" font-weight="bold" fill="#151515">Fintech / bank</text><text x="281.75" y="288" text-anchor="middle" font-family="Arial,sans-serif" font-size="21" fill="#252525">Integrate data and support responsible</text><text x="281.75" y="313" text-anchor="middle" font-family="Arial,sans-serif" font-size="21" fill="#252525">finance</text><text x="818.25" y="260.5" text-anchor="middle" font-family="Georgia,serif" font-size="23" font-weight="bold" fill="#151515">Government / regulator</text><text x="818.25" y="300.5" text-anchor="middle" font-family="Arial,sans-serif" font-size="21" fill="#252525">Guide, protect and enable compliance</text><text x="281.75" y="435.5" text-anchor="middle" font-family="Georgia,serif" font-size="23" font-weight="bold" fill="#151515">Research / education</text><text x="281.75" y="475.5" text-anchor="middle" font-family="Arial,sans-serif" font-size="21" fill="#252525">Evaluate, validate and build capability</text><text x="36" y="590" font-family="Georgia,serif" font-size="20" font-style="italic" fill="#333">Practical impact depends on coordinated responsibilities across institutions.</text></svg>